{"title":"Scorpion S02","uid":15618295,"size":7486172596,"categoryP":"video","categoryS":"tv_shows","magnet":"?xt=urn:btih:4a571d2dfb0fa518627c767b5c1ec83ae5a28547&amp;dn=Scorpion+S02&amp;tr=udp%3A%2F%2Ftracker.leechers-paradise.org%3A6969&amp;tr=udp%3A%2F%2Fzer0day.ch%3A1337&amp;tr=udp%3A%2F%2Fopen.demonii.com%3A1337&amp;tr=udp%3A%2F%2Ftracker.coppersurfer.tk%3A6969&amp;tr=udp%3A%2F%2Fexodus.desync.com%3A6969","seeders":12,"leechers":3,"uploader":"TheamHero","files":46,"time":1471857081,"description":"Scorpion Season 2 - HDTV - TheAmHero\r\n\r\n\r\nFormat                                   : MPEG-4\r\nFormat profile                           : Base Media\r\nCodec ID                                 : isom (isom)\r\nFile size                                : 296 MiB\r\nOverall bit rate mode                    : Variable\r\nOverall bit rate                         : 956 kb/s\r\n\r\nVideo\r\nFormat                                   : AVC\r\nFormat/Info                              : Advanced Video Codec\r\nFormat profile                           :   \r\nFormat settings, CABAC                   : Yes\r\nFormat settings, ReFrames                : 5 frames\r\nCodec ID                                 : avc1\r\nCodec ID/Info                            : Advanced Video Coding\r\nBit rate                                 : 834 kb/s\r\nMaximum bit rate                         : 5 365 kb/s\r\nWidth                                    : 720 pixels\r\nHeight                                   : 404 pixels\r\nDisplay aspect ratio                     : 16:9\r\nFrame rate mode                          : Constant\r\nFrame rate                               : 23.976 (24000/1001) FPS\r\nColor space                              : YUV\r\nChroma subsampling                       : 4:2:0\r\nBit depth                                : 8 bits\r\nScan type                                : Progressive\r\nBits/(Pixel*Frame)                       : 0.120\r\nStream size                              : 258 MiB (87%)\r\nColor range                              : Limited\r\nMatrix coefficients                      : BT.709\r\n\r\nAudio\r\nFormat                                   : AAC\r\nFormat/Info                              : Advanced Audio Codec\r\nFormat profile                           : LC\r\nCodec ID                                 : 40\r\nBit rate mode                            : Variable\r\nBit rate                                 : 118 kb/s\r\nMaximum bit rate                         : 147 kb/s\r\nChannel(s)                               : 2 channels\r\nChannel positions                        : Front: L R\r\nSampling rate                            : 48.0 kHz\r\nFrame rate                               : 46.875 FPS (1024 spf)\r\nCompression mode                         : Lossy\r\nStream size                              : 36.5 MiB (12%)","torrent":{"xt":"urn:btih:4a571d2dfb0fa518627c767b5c1ec83ae5a28547","amp;dn":"Scorpion+S02","amp;tr":["udp%3A%2F%2Ftracker.leechers-paradise.org%3A6969","udp%3A%2F%2Fzer0day.ch%3A1337","udp%3A%2F%2Fopen.demonii.com%3A1337","udp%3A%2F%2Ftracker.coppersurfer.tk%3A6969","udp%3A%2F%2Fexodus.desync.com%3A6969"],"infoHash":"4a571d2dfb0fa518627c767b5c1ec83ae5a28547","infoHashBuffer":{"type":"Buffer","data":[74,87,29,45,251,15,165,24,98,124,118,123,92,30,200,58,229,162,133,71]},"announce":[],"urlList":[]}}